<svg width="48" height="44" viewBox="0 0 48 44" fill="none" xmlns="http://www.w3.org/2000/svg">
<g filter="url(#filter0_d_27_218)">
<rect x="4" width="40" height="36" rx="2" fill="#181818"/>
</g>
<path d="M30.411 16.811C30.5431 16.768 30.7307 16.7363 30.872 16.8265L31.2741 16.19C30.959 15.9893 30.5584 15.9521 30.1465 16.0854L30.411 16.811Z" fill="#ED8D1B"/>
<path d="M28.7388 17.2906C28.0547 18.3709 28.1059 19.5883 28.8551 20.0629L29.2618 19.421C28.9466 19.2208 28.9413 18.4496 29.407 17.714C29.5148 17.5439 29.6382 17.39 29.7741 17.2569L29.2112 16.7033C29.0356 16.8756 28.8767 17.0734 28.7388 17.2906Z" fill="#ED8D1B"/>
<path d="M29.0202 10.0525C28.4678 10.1652 27.9402 10.4409 27.4852 10.8399C26.1147 10.1192 24.64 9.70428 23.0941 9.61359C17.3376 9.27585 12.5462 13.6196 12.4132 19.2967C12.2802 24.9738 16.8552 29.8671 22.6117 30.2049C24.1575 30.2956 25.6477 30.0546 27.0476 29.4964C27.4831 29.9477 27.996 30.2844 28.5416 30.4615C29.1849 30.6707 29.8063 30.6392 30.338 30.3703C31.113 29.9789 31.5372 29.1439 31.5599 28.1757C31.5732 27.6075 31.4389 26.9952 31.1648 26.3987C32.2487 26.8186 33.3141 26.6611 33.7766 25.9273C33.9165 25.7052 33.9862 25.4558 33.9924 25.1934C34.0082 24.52 33.6016 23.7626 32.8864 23.1689C34.7861 23.2624 36.3516 22.1637 36.3859 20.7032C36.4196 19.2622 34.9493 17.9991 33.0871 17.8413C33.7807 17.3375 34.1932 16.6576 34.2084 16.0078C34.2145 15.7455 34.1563 15.4878 34.0275 15.2507C33.5954 14.456 32.5214 14.1753 31.4072 14.4837C31.7345 13.9004 31.9093 13.2779 31.9232 12.6854C31.9459 11.7176 31.5616 10.8347 30.807 10.3536C30.2893 10.0239 29.6715 9.91929 29.0202 10.0525ZM13.1865 19.3421C13.3097 14.0856 17.7462 10.0635 23.0763 10.3762C24.4358 10.456 25.7359 10.8049 26.9491 11.4103C26.8672 11.5166 26.7887 11.6273 26.7159 11.7433C26.652 11.845 26.5938 11.9481 26.5399 12.0522C25.4446 11.5194 24.2752 11.2103 23.0584 11.1389C18.1548 10.8512 14.0732 14.5512 13.9598 19.3875C13.8465 24.2238 17.7439 28.3919 22.6474 28.6796C23.8685 28.7512 25.0483 28.5818 26.1628 28.1783C26.2114 28.2877 26.2646 28.3969 26.3232 28.505C26.3904 28.6292 26.4635 28.7488 26.5401 28.8645C25.3019 29.3264 23.989 29.522 22.6296 29.4422C17.2995 29.1295 13.0634 24.5986 13.1865 19.3421ZM27.2157 16.0588C27.7334 16.389 28.3512 16.4936 29.0029 16.3603C29.0733 16.3458 29.1427 16.3243 29.2125 16.3047C29.0446 16.7614 29.0533 17.2331 29.2771 17.6449C29.5154 18.0835 29.9538 18.3597 30.482 18.4751C29.8458 18.9212 29.4432 19.5627 29.4261 20.2949C29.4083 21.0533 29.8091 21.7619 30.462 22.287C29.8985 22.3258 29.4215 22.5555 29.1517 22.9834C28.9216 23.3491 28.8842 23.7906 29.0064 24.2414C28.9443 24.2168 28.883 24.1895 28.8199 24.169C28.1767 23.9598 27.5553 23.9913 27.0236 24.2603C25.9931 24.7806 25.5857 26.0871 25.9155 27.4459C24.8861 27.8243 23.7951 27.9832 22.6653 27.917C18.1878 27.6543 14.6297 23.8482 14.7332 19.4328C14.8366 15.0175 18.5631 11.6388 23.0405 11.9015C24.1665 11.9676 25.2477 12.2563 26.2586 12.7543C25.8665 14.0701 26.212 15.4196 27.2157 16.0588ZM32.9506 18.5924L32.9328 19.3551L32.3195 19.3191L31.7582 18.7188C32.1204 18.6155 32.5242 18.5674 32.9506 18.5924ZM31.6781 22.14L32.2659 21.607L32.8792 21.643L32.8613 22.4056C32.4348 22.3806 32.0344 22.2853 31.6781 22.14ZM33.6525 21.6884L33.8791 21.7017L34.3319 22.1861C34.1178 22.2701 33.8844 22.3332 33.6365 22.3706L33.6525 21.6884ZM31.5681 21.1842L30.9612 21.7344C30.5988 21.4535 30.3441 21.104 30.245 20.7248L31.1903 20.7802L31.5681 21.1842ZM34.2925 20.5804L33.8969 20.939L32.2838 20.8444L31.9061 20.4404L32.3017 20.0817L33.9148 20.1764L34.2925 20.5804ZM30.2628 19.9621C30.3794 19.5955 30.6502 19.2773 31.0244 19.0392L31.6038 19.659L31.2082 20.0176L30.2628 19.9621ZM33.7061 19.4005L33.7221 18.7183C33.9679 18.7846 34.1973 18.8748 34.407 18.9837L33.9327 19.4137L33.7061 19.4005ZM29.9664 29.6879C29.6185 29.8634 29.2011 29.8805 28.7592 29.7366C28.0721 29.5134 27.4153 28.9253 27.0022 28.1638C26.2926 26.8556 26.4689 25.4107 27.3948 24.9426C27.7427 24.7672 28.1601 24.75 28.602 24.894C29.2891 25.1172 29.9459 25.7052 30.359 26.4668C31.0683 27.7753 30.8927 29.2199 29.9664 29.6879ZM32.0679 23.4985C32.9637 24.0685 33.4447 24.9879 33.1166 25.5071C32.79 26.0255 31.7573 25.9821 30.8615 25.4122C29.9661 24.8426 29.4859 23.9236 29.8124 23.404C30.1397 22.8856 31.1721 22.9289 32.0679 23.4985ZM35.0042 21.7998L34.5948 21.3618L34.9904 21.0032L35.5491 21.036C35.4567 21.3269 35.2656 21.586 35.0042 21.7998ZM35.567 20.2733L35.0083 20.2405L34.6305 19.8365L35.0594 19.4478C35.31 19.6916 35.4885 19.9724 35.567 20.2733ZM33.3489 15.5927C33.6502 16.15 33.1283 17.009 32.2091 17.4725C31.2895 17.9356 30.2575 17.8582 29.9558 17.3029C29.8941 17.1901 29.8669 17.0648 29.87 16.9324C29.8821 16.4142 30.3625 15.7921 31.0955 15.4227C32.0151 14.9597 33.0471 15.0374 33.3489 15.5927ZM30.4045 10.991C31.3063 11.5663 31.4138 13.0278 30.6456 14.2493C30.198 14.9604 29.5155 15.4694 28.8199 15.6119C28.3725 15.7036 27.9566 15.6372 27.6182 15.4219C27.1051 15.0947 26.8489 14.4798 26.8652 13.7862C26.8775 13.2607 27.0457 12.6902 27.3771 12.1636C27.8247 11.4525 28.5072 10.9434 29.2029 10.801C29.6503 10.7092 30.0661 10.7756 30.4045 10.991Z" fill="#ED8D1B"/>
<path d="M29.5764 34.3502C29.981 34.5313 30.3822 34.5411 30.7059 34.3779L30.3347 33.696C30.1891 33.7694 30.004 33.7158 29.8742 33.6575L29.5764 34.3502Z" fill="#ED8D1B"/>
<path d="M28.2613 33.0139C28.3882 33.2465 28.5374 33.4623 28.7047 33.6551L29.2922 33.1687C29.163 33.0201 29.0471 32.8523 28.9476 32.6701C28.5175 31.8824 28.5595 31.1132 28.8833 30.9507L28.5079 30.2632C27.7384 30.6486 27.6297 31.8559 28.2613 33.0139Z" fill="#ED8D1B"/>
<defs>
<filter id="filter0_d_27_218" x="0" y="0" width="48" height="44" filterUnits="userSpaceOnUse" color-interpolation-filters="sRGB">
<feFlood flood-opacity="0" result="BackgroundImageFix"/>
<feColorMatrix in="SourceAlpha" type="matrix" values="0 0 0 0 0 0 0 0 0 0 0 0 0 0 0 0 0 0 127 0" result="hardAlpha"/>
<feOffset dy="4"/>
<feGaussianBlur stdDeviation="2"/>
<feComposite in2="hardAlpha" operator="out"/>
<feColorMatrix type="matrix" values="0 0 0 0 0 0 0 0 0 0 0 0 0 0 0 0 0 0 1 0"/>
<feBlend mode="normal" in2="BackgroundImageFix" result="effect1_dropShadow_27_218"/>
<feBlend mode="normal" in="SourceGraphic" in2="effect1_dropShadow_27_218" result="shape"/>
</filter>
</defs>
</svg>
