<svg width="48" height="44" viewBox="0 0 48 44" fill="none" xmlns="http://www.w3.org/2000/svg">
<g filter="url(#filter0_d_27_217)">
<rect x="4" width="40" height="36" rx="2" fill="#181818"/>
</g>
<path d="M16.2394 17.6667C16.064 17.6669 15.8919 17.6864 15.7401 17.7231C15.5883 17.7598 15.4623 17.8125 15.3746 17.8759C15.1941 18.0046 10.9577 21.0451 10.9577 23.5667C10.9577 26.8426 14.2666 27.3333 16.2394 27.3333C18.2122 27.3333 21.5211 26.8437 21.5211 23.5667C21.5211 21.0451 17.2847 18.0046 17.1043 17.8759C17.0166 17.8125 16.8905 17.7598 16.7388 17.7231C16.587 17.6864 16.4148 17.6669 16.2394 17.6667ZM16.2394 26.4921C13.3893 26.4921 12.9631 24.658 12.9631 23.5625C12.9631 21.9366 15.0262 19.9821 16.2394 18.9724C17.4527 19.981 19.5157 21.9345 19.5157 23.5625C19.5157 24.658 19.0896 26.4921 16.2394 26.4921Z" fill="#ED8D1B"/>
<path d="M31.3528 15.6223C32.0142 15.4877 32.5654 15.2702 32.934 14.9985C33.3025 14.7268 33.4712 14.4135 33.4177 14.0998C33.3643 13.7862 33.0912 13.4868 32.6345 13.241C32.1778 12.9953 31.5588 12.8147 30.8588 12.7229V9.86075C30.8699 9.42264 31.2309 8.99949 31.8814 8.66215C32.639 8.26542 33.0564 7.76886 33.0638 7.25564C33.0712 6.74241 32.6682 6.24367 31.9221 5.84293C31.1761 5.44218 30.1323 5.16376 28.9656 5.05428C27.799 4.9448 26.5802 5.01092 25.5134 5.24155C23.2902 5.72035 22.2651 6.79473 23.0111 7.85637C23.0674 7.93643 23.0857 8.02054 23.0649 8.1037C23.0442 8.18686 22.9847 8.26738 22.8901 8.34048L22.5072 8.61544C22.4423 8.66424 22.4004 8.71805 22.384 8.7738C22.3675 8.82955 22.3767 8.88615 22.4111 8.94037C22.4455 8.99459 22.5044 9.04537 22.5845 9.0898C22.6645 9.13424 22.7642 9.17146 22.8777 9.19934C22.9913 9.22723 23.1165 9.24523 23.2462 9.25231C23.3759 9.2594 23.5076 9.25544 23.6338 9.24065C23.7599 9.22586 23.8781 9.20054 23.9814 9.16613C24.0848 9.13172 24.1714 9.08889 24.2363 9.0401L24.6068 8.76195C24.8337 8.58874 24.977 8.39763 25.0279 8.20006C25.0788 8.0025 25.0364 7.80255 24.9033 7.61219C24.4413 6.95291 25.0539 6.29151 26.3977 6.00274C27.099 5.85534 27.8997 5.82044 28.6556 5.90433C29.4115 5.98823 30.0728 6.1854 30.5204 6.46031C30.9165 6.70822 31.1143 7.00477 31.084 7.30523C31.0537 7.60569 30.7969 7.89377 30.3524 8.12602C29.4138 8.61462 28.8948 9.22714 28.8827 9.86075V12.7028C28.1586 12.7818 27.5091 12.955 27.023 13.1988C26.5369 13.4426 26.238 13.745 26.1671 14.0646C26.0963 14.3842 26.257 14.7054 26.6272 14.9842C26.9975 15.2631 27.5592 15.4859 28.2355 15.6223C27.0004 16.4716 24.5599 18.2827 23.0012 20.2935C22.937 20.2096 22.8703 20.1257 22.8012 20.0429L22.5937 19.7945C22.522 19.7117 22.4504 19.63 22.3763 19.5482C22.2305 19.3858 22.0799 19.2244 21.9267 19.0662C21.8501 18.9866 21.7711 18.908 21.6945 18.8305C21.5298 18.6748 21.3709 18.522 21.2178 18.3719C20.578 17.7721 19.916 17.2232 19.3133 16.755L19.0885 16.5831C18.7575 16.3304 18.4487 16.1043 18.177 15.91L17.9992 15.7847C17.9177 15.7263 17.8411 15.6785 17.767 15.6223C18.4284 15.4877 18.9796 15.2702 19.3481 14.9985C19.7167 14.7268 19.8853 14.4135 19.8319 14.0998C19.7784 13.7862 19.5054 13.4868 19.0487 13.241C18.592 12.9953 17.9729 12.8147 17.273 12.7229V9.86075C17.2841 9.42264 17.6451 8.99949 18.2956 8.66215C19.0559 8.26529 19.4752 7.76809 19.4832 7.25403C19.4913 6.73998 19.0875 6.2404 18.3397 5.83919C17.5919 5.43798 16.5457 5.15958 15.3767 5.05075C14.2077 4.94192 12.9872 5.00929 11.9201 5.24155C9.70194 5.72035 8.67435 6.79473 9.4154 7.85637C9.47171 7.93643 9.49002 8.02054 9.46923 8.1037C9.44843 8.18686 9.38897 8.26738 9.29436 8.34048L8.92137 8.61544C8.79034 8.71399 8.75577 8.83087 8.82526 8.94037C8.89474 9.04988 9.0626 9.14303 9.29189 9.19934C9.52118 9.25566 9.79314 9.27051 10.0479 9.24065C10.3027 9.21079 10.5194 9.13864 10.6505 9.0401L11.021 8.76195C11.2479 8.58874 11.3911 8.39763 11.4421 8.20006C11.493 8.0025 11.4506 7.80255 11.3174 7.61219C10.8555 6.95291 11.4681 6.29151 12.7995 6.00274C13.5008 5.85534 14.3016 5.82044 15.0574 5.90433C15.8133 5.98823 16.4746 6.1854 16.9222 6.46031C17.3183 6.70822 17.5161 7.00477 17.4858 7.30523C17.4555 7.60569 17.1988 7.89377 16.7542 8.12602C15.8111 8.6139 15.2877 9.22649 15.2721 9.86075V12.7028C14.5495 12.7831 13.9023 12.9574 13.4188 13.2019C12.9354 13.4463 12.6394 13.7489 12.5713 14.0684C12.5032 14.3879 12.6663 14.7086 13.0383 14.9867C13.4103 15.2648 13.973 15.4868 14.6497 15.6223C12.7674 16.9185 8 20.5058 8 23.5697C8 28.4681 13.7406 28.9989 16.2083 28.9989C16.5147 28.9989 16.8207 28.9908 17.1247 28.9745C17.2211 28.9745 17.3174 28.9639 17.4187 28.9565L17.5101 28.9501L17.641 28.9395L17.888 28.9172C18.4677 28.8604 19.0281 28.7719 19.5554 28.6539C19.669 28.6284 19.7802 28.6019 19.8938 28.5722C20.0074 28.5424 20.121 28.5127 20.2371 28.4787L20.3705 28.4395C20.499 28.3991 20.6274 28.3566 20.7559 28.3121C20.9214 28.2537 21.0819 28.19 21.2499 28.121L21.2944 28.1019C21.3685 28.07 21.4426 28.036 21.5167 28.001C21.5369 27.9923 21.5559 27.9831 21.5735 27.9734L21.7316 27.8948C21.7834 27.8683 21.8329 27.8407 21.8847 27.8131C21.9366 27.7855 21.9885 27.7558 22.0379 27.726V27.7197L22.1762 27.6347C22.4912 27.4356 22.7664 27.2254 22.9988 27.0062C24.8588 28.7505 28.0972 29 29.7917 29C32.2618 29 38 28.4692 38 23.5655C38.0025 20.5058 33.2351 16.9143 31.3528 15.6223ZM28.8827 13.6243V14.136C28.8827 14.2486 28.9868 14.3566 29.1721 14.4362C29.3574 14.5159 29.6087 14.5606 29.8707 14.5606C30.1328 14.5606 30.3841 14.5159 30.5694 14.4362C30.7547 14.3566 30.8588 14.2486 30.8588 14.136V13.6635C31.1266 13.7589 31.3176 13.8881 31.4049 14.0328C31.4921 14.1774 31.4711 14.3302 31.3449 14.4695C31.2186 14.6088 30.9935 14.7274 30.7015 14.8085C30.4095 14.8897 30.0654 14.9293 29.7181 14.9216C29.3708 14.914 29.038 14.8595 28.7668 14.7659C28.4956 14.6724 28.2999 14.5445 28.2074 14.4004C28.1149 14.2563 28.1304 14.1034 28.2516 13.9633C28.3728 13.8232 28.5936 13.7031 28.8827 13.62V13.6243ZM15.2968 13.6243V14.136C15.2968 14.2486 15.4009 14.3566 15.5862 14.4362C15.7715 14.5159 16.0228 14.5606 16.2849 14.5606C16.5469 14.5606 16.7983 14.5159 16.9836 14.4362C17.1689 14.3566 17.273 14.2486 17.273 14.136V13.6635C17.5407 13.7589 17.7318 13.8881 17.819 14.0328C17.9063 14.1774 17.8853 14.3302 17.759 14.4695C17.6328 14.6088 17.4077 14.7274 17.1157 14.8085C16.8236 14.8897 16.4796 14.9293 16.1323 14.9216C15.785 14.914 15.4521 14.8595 15.181 14.7659C14.9098 14.6724 14.7141 14.5445 14.6216 14.4004C14.5291 14.2563 14.5446 14.1034 14.6658 13.9633C14.787 13.8232 15.0078 13.7031 15.2968 13.62V13.6243ZM21.8329 25.9127C21.8032 25.9616 21.7711 26.0094 21.739 26.0561C21.7069 26.1028 21.6698 26.1537 21.6328 26.2015C21.5957 26.2493 21.571 26.2811 21.5389 26.3194C21.5337 26.3245 21.5296 26.3298 21.5266 26.3353C21.3637 26.5286 21.1672 26.7163 20.9387 26.8969L20.8868 26.9372C20.8399 26.9723 20.7929 27.0073 20.7435 27.0434C20.6941 27.0774 20.6447 27.1113 20.5904 27.1432C20.536 27.175 20.4817 27.2122 20.4249 27.2494C20.3681 27.2865 20.3186 27.3088 20.2643 27.3375C19.8897 27.5398 19.4368 27.7129 18.9255 27.8492C18.8538 27.8683 18.7822 27.8853 18.7106 27.9023L18.5278 27.9426C18.4487 27.9596 18.3697 27.9745 18.2808 27.9893L18.1227 28.0159L18.0041 28.035L17.809 28.0626L17.7324 28.0721L17.5447 28.0934L17.2804 28.1178C17.2038 28.1241 17.1272 28.1295 17.0482 28.1337H17.0012L16.7542 28.1454L16.5196 28.1528C16.4158 28.1528 16.3121 28.1528 16.2083 28.1528C12.1894 28.1528 9.97612 26.5243 9.97612 23.5676C9.97612 20.8179 14.3532 17.4578 16.2083 16.1563C16.3491 16.2539 16.5023 16.3686 16.6678 16.4843L16.7913 16.5735L17.1964 16.8761C17.2878 16.944 17.3792 17.0151 17.473 17.0884L17.7769 17.3262L18.182 17.6532C18.2511 17.7095 18.3203 17.7668 18.387 17.8241C18.4537 17.8814 18.5278 17.9409 18.597 18.0003C18.5961 18.0028 18.5961 18.0053 18.597 18.0078C18.7328 18.1246 18.8687 18.2435 19.0045 18.3655C19.0762 18.4271 19.1453 18.4908 19.2145 18.5545C19.2145 18.5641 19.2343 18.5736 19.2466 18.5832C19.4195 18.741 19.5908 18.9027 19.7604 19.0684L19.8864 19.1936C20.0025 19.3093 20.1186 19.4282 20.2322 19.5482C20.4298 19.7542 20.62 19.9644 20.7979 20.1767C20.8497 20.2372 20.8991 20.2967 20.9485 20.3572C21.0202 20.4453 21.0918 20.5345 21.161 20.6237C21.2104 20.6895 21.2598 20.7553 21.3067 20.8211C21.3981 20.9432 21.4846 21.0664 21.5537 21.1906C21.5784 21.2256 21.6007 21.2617 21.6229 21.2967C21.6772 21.3785 21.7266 21.4613 21.7736 21.543C21.846 21.6648 21.9127 21.7869 21.9737 21.9093C21.712 22.455 21.5755 23.0104 21.5661 23.5676C21.5586 24.2499 21.7017 24.931 21.9934 25.6017C21.9415 25.7079 21.8847 25.814 21.823 25.9085L21.8329 25.9127ZM29.7942 28.1496C26.83 28.1496 24.8538 27.261 24.0091 25.6017C23.6925 24.9299 23.5426 24.2455 23.562 23.5602C23.5751 23.0022 23.725 22.4464 24.0091 21.9019V21.9019C25.1725 19.5779 28.2997 17.1977 29.7942 16.1499C31.6517 17.4504 36.0263 20.8084 36.0263 23.5612C36.0263 26.5221 33.8131 28.1496 29.7942 28.1496Z" fill="#ED8D1B"/>
<path d="M30.6254 17.8734C30.5369 17.8105 30.4106 17.7583 30.2589 17.722C30.1072 17.6857 29.9354 17.6667 29.7606 17.6667C29.5857 17.6667 29.414 17.6857 29.2623 17.722C29.1106 17.7583 28.9842 17.8105 28.8957 17.8734C28.7153 18.0022 24.4789 21.0435 24.4789 23.5657C24.4789 26.8425 27.7878 27.3333 29.7606 27.3333C31.7334 27.3333 35.0423 26.8435 35.0423 23.5657C35.0297 21.0435 30.7933 18.0022 30.6254 17.8734ZM29.7606 26.495C26.9104 26.495 26.4843 24.6604 26.4843 23.5646C26.4843 21.9383 28.5473 19.9833 29.7606 18.9734C30.9738 19.9823 33.0369 21.9362 33.0369 23.5646C33.0243 24.6604 32.5982 26.495 29.748 26.495H29.7606Z" fill="#ED8D1B"/>
<defs>
<filter id="filter0_d_27_217" x="0" y="0" width="48" height="44" filterUnits="userSpaceOnUse" color-interpolation-filters="sRGB">
<feFlood flood-opacity="0" result="BackgroundImageFix"/>
<feColorMatrix in="SourceAlpha" type="matrix" values="0 0 0 0 0 0 0 0 0 0 0 0 0 0 0 0 0 0 127 0" result="hardAlpha"/>
<feOffset dy="4"/>
<feGaussianBlur stdDeviation="2"/>
<feComposite in2="hardAlpha" operator="out"/>
<feColorMatrix type="matrix" values="0 0 0 0 0 0 0 0 0 0 0 0 0 0 0 0 0 0 1 0"/>
<feBlend mode="normal" in2="BackgroundImageFix" result="effect1_dropShadow_27_217"/>
<feBlend mode="normal" in="SourceGraphic" in2="effect1_dropShadow_27_217" result="shape"/>
</filter>
</defs>
</svg>
