<svg width="48" height="44" viewBox="0 0 48 44" fill="none" xmlns="http://www.w3.org/2000/svg">
<g filter="url(#filter0_d_27_180)">
<rect x="4" width="40" height="36" rx="2" fill="#181818"/>
</g>
<path d="M35.0726 8.99829C35.0408 8.99829 35.009 8.99657 34.9772 8.99323C34.5063 8.94137 34.1673 8.51691 34.2192 8.04651C34.2635 7.64897 34.2857 7.24886 34.2857 6.85714C34.2857 6.3834 34.6695 6 35.1428 6C35.6162 6 36 6.3834 36 6.85714C36 7.31169 35.974 7.7754 35.9234 8.23577C35.8744 8.67437 35.5036 8.99829 35.0726 8.99829Z" fill="#ED8D1B"/>
<path d="M22.7072 19.875C22.6674 19.875 22.6272 19.8725 22.5867 19.8666C21.66 19.7361 20.743 19.4774 19.8621 19.0966C19.4277 18.909 19.2272 18.4043 19.4151 17.9698C19.6026 17.5346 20.1069 17.3354 20.5418 17.5228C21.2822 17.8426 22.0506 18.0603 22.8253 18.169C23.2941 18.2351 23.6209 18.6688 23.5548 19.1375C23.4945 19.5653 23.1273 19.875 22.7072 19.875ZM25.3058 19.8733C24.886 19.8733 24.5193 19.5644 24.4587 19.1375C24.3917 18.6688 24.7173 18.2344 25.186 18.1674C25.9616 18.0569 26.7296 17.8384 27.4691 17.5179C27.9031 17.3303 28.4079 17.5296 28.5962 17.964C28.7845 18.3984 28.5849 18.9032 28.1505 19.0915C27.2711 19.4723 26.355 19.7326 25.4279 19.8649C25.387 19.8708 25.3464 19.8733 25.3058 19.8733ZM17.9535 17.8535C17.774 17.8535 17.5932 17.7975 17.4383 17.6811C16.7079 17.1303 16.0241 16.4883 15.4059 15.7743C15.0963 15.416 15.1356 14.8744 15.4935 14.5648C15.8513 14.2558 16.3929 14.2944 16.7025 14.6526C17.2416 15.2754 17.8364 15.8337 18.4704 16.3116C18.8483 16.597 18.9237 17.1345 18.6391 17.512C18.4704 17.7355 18.2134 17.8535 17.9535 17.8535ZM30.0578 17.846C29.7979 17.846 29.5417 17.7288 29.3731 17.5053C29.0877 17.1278 29.1626 16.5904 29.5401 16.3049C30.1741 15.8261 30.7684 15.267 31.3066 14.6434C31.6159 14.2851 32.1571 14.2457 32.5154 14.5546C32.8737 14.8636 32.9134 15.4051 32.6041 15.7634C31.9872 16.4782 31.3037 17.1211 30.5738 17.6727C30.419 17.7899 30.2377 17.846 30.0578 17.846ZM14.553 13.9403C14.2546 13.9403 13.9646 13.7847 13.8068 13.5059C13.3468 12.6957 12.9676 11.8427 12.6789 10.9696C12.5307 10.5201 12.7743 10.0354 13.2237 9.88732C13.6757 9.73578 14.1583 9.98195 14.3069 10.4322C14.5597 11.1982 14.8933 11.9473 15.2976 12.6604C15.5312 13.0714 15.3872 13.5946 14.9753 13.829C14.8418 13.9043 14.6961 13.9403 14.553 13.9403ZM33.455 13.9277C33.3118 13.9277 33.1671 13.8917 33.0335 13.8164C32.6217 13.5837 32.4769 13.0606 32.71 12.6487C33.1122 11.9372 33.4449 11.1872 33.6986 10.4188C33.8475 9.96841 34.333 9.72318 34.7813 9.87387C35.2308 10.0221 35.4748 10.5067 35.3266 10.9562C35.0374 11.8309 34.6591 12.6847 34.2016 13.4925C34.0443 13.7712 33.7538 13.9277 33.455 13.9277Z" fill="#ED8D1B"/>
<path d="M12.9274 8.99829C12.4964 8.99829 12.1256 8.67437 12.0765 8.23577C12.026 7.7754 12 7.31169 12 6.85714C12 6.3834 12.3838 6 12.8571 6C13.3305 6 13.7143 6.3834 13.7143 6.85714C13.7143 7.24886 13.7365 7.64897 13.7808 8.0466C13.8327 8.517 13.4937 8.94137 13.0228 8.99331C12.9911 8.99666 12.9592 8.99829 12.9274 8.99829Z" fill="#ED8D1B"/>
<path d="M24 27.4286C22.582 27.4286 21.4286 26.3847 21.4286 25.1024C21.4286 24.1899 22.5791 22.1325 23.2646 20.9882C23.5743 20.471 24.4256 20.471 24.7353 20.9882C25.4209 22.1325 26.5714 24.19 26.5714 25.1024C26.5714 26.3847 25.418 27.4286 24 27.4286ZM24.0004 23.1713C23.5371 24.0402 23.1667 24.8412 23.1424 25.1158C23.1428 25.4339 23.5354 25.7143 24 25.7143C24.4646 25.7143 24.8571 25.4339 24.8571 25.1024C24.8329 24.8362 24.4628 24.0393 24.0004 23.1713Z" fill="#ED8D1B"/>
<path d="M19.7143 25.9654H18.8571C18.3838 25.9654 18 25.582 18 25.1083C18 24.6346 18.3838 24.2512 18.8571 24.2512H19.7143C20.1876 24.2512 20.5714 24.6346 20.5714 25.1083C20.5714 25.582 20.1876 25.9654 19.7143 25.9654Z" fill="#ED8D1B"/>
<path d="M29.1428 25.9654H28.2857C27.8124 25.9654 27.4286 25.582 27.4286 25.1083C27.4286 24.6346 27.8124 24.2512 28.2857 24.2512H29.1428C29.6162 24.2512 30 24.6346 30 25.1083C30 25.582 29.6162 25.9654 29.1428 25.9654Z" fill="#ED8D1B"/>
<path d="M20.8226 30C20.6032 30 20.384 29.9163 20.2166 29.7489C19.8818 29.4141 19.8818 28.8717 20.2166 28.5368L20.8226 27.9308C21.1574 27.596 21.6998 27.596 22.0346 27.9308C22.3695 28.2656 22.3694 28.808 22.0346 29.1429L21.4286 29.7489C21.2612 29.9163 21.0418 30 20.8226 30Z" fill="#ED8D1B"/>
<path d="M27.1774 30C26.9581 30 26.7388 29.9162 26.5714 29.7488L25.9654 29.1428C25.6306 28.808 25.6306 28.2656 25.9654 27.9308C26.3002 27.5959 26.8426 27.596 27.1775 27.9308L27.7835 28.5368C28.1183 28.8716 28.1183 29.414 27.7835 29.7488C27.6161 29.9162 27.3968 30 27.1774 30Z" fill="#ED8D1B"/>
<defs>
<filter id="filter0_d_27_180" x="0" y="0" width="48" height="44" filterUnits="userSpaceOnUse" color-interpolation-filters="sRGB">
<feFlood flood-opacity="0" result="BackgroundImageFix"/>
<feColorMatrix in="SourceAlpha" type="matrix" values="0 0 0 0 0 0 0 0 0 0 0 0 0 0 0 0 0 0 127 0" result="hardAlpha"/>
<feOffset dy="4"/>
<feGaussianBlur stdDeviation="2"/>
<feComposite in2="hardAlpha" operator="out"/>
<feColorMatrix type="matrix" values="0 0 0 0 0 0 0 0 0 0 0 0 0 0 0 0 0 0 1 0"/>
<feBlend mode="normal" in2="BackgroundImageFix" result="effect1_dropShadow_27_180"/>
<feBlend mode="normal" in="SourceGraphic" in2="effect1_dropShadow_27_180" result="shape"/>
</filter>
</defs>
</svg>
