<svg width="48" height="44" viewBox="0 0 48 44" fill="none" xmlns="http://www.w3.org/2000/svg">
<g filter="url(#filter0_d_27_219)">
<rect x="4" width="40" height="36" rx="2" fill="#181818"/>
</g>
<path d="M29.1603 10.546C29.0983 10.5197 29.0308 10.5041 28.9616 10.5002C28.8925 10.4964 28.8232 10.5043 28.7576 10.5235C28.6921 10.5427 28.6318 10.5728 28.5801 10.6121C28.5284 10.6514 28.4864 10.6991 28.4565 10.7523C28.4267 10.8056 28.4096 10.8634 28.4063 10.9223C28.4029 10.9813 28.4134 11.0402 28.4371 11.0957C28.4608 11.1512 28.4972 11.2021 28.5442 11.2454C28.5912 11.2888 28.6479 11.3237 28.7109 11.3482C30.9732 12.2662 32.7977 13.8172 33.8802 15.7426C34.9627 17.6679 35.2379 19.8513 34.6598 21.9285C34.0817 24.0058 32.6852 25.8515 30.7033 27.1577C28.7214 28.464 26.2738 29.152 23.7686 29.1069C21.2635 29.0619 18.8521 28.2865 16.9367 26.9101C15.0212 25.5337 13.7175 23.6395 13.2428 21.5433C12.7681 19.4471 13.1511 17.2756 14.3281 15.3909C15.505 13.5062 17.4047 12.0222 19.7104 11.1863C20.0108 11.0758 20.3176 10.9784 20.6296 10.8944C22.6325 10.3527 24.7743 10.3044 26.808 10.7551L26.8393 10.764C26.9042 10.7827 26.9729 10.7904 27.0413 10.7865C27.1097 10.7826 27.1766 10.7672 27.238 10.7412C27.2994 10.7152 27.3542 10.6791 27.3992 10.635C27.4441 10.5909 27.4784 10.5396 27.5001 10.4842C27.5106 10.4491 27.5159 10.413 27.5157 10.3768L28.6583 7.94313C28.6962 7.86236 28.7055 7.77388 28.685 7.68866C28.6644 7.60343 28.615 7.52522 28.5428 7.46371L26.9777 6.13024L26.9724 6.12717C26.947 6.10962 26.9198 6.0941 26.891 6.08081C26.8628 6.06206 26.8324 6.04585 26.8003 6.03245C26.7973 6.03143 26.7954 6.0292 26.7923 6.028C26.7647 6.02216 26.7366 6.01834 26.7082 6.01658C26.6758 6.00825 26.6425 6.0027 26.6088 6H21.3917C21.3232 6 21.2554 6.0115 21.1921 6.03384C21.1288 6.05619 21.0713 6.08894 21.0229 6.13024L19.4577 7.46371C19.3755 7.53382 19.3231 7.62535 19.309 7.72373C19.2948 7.82211 19.3196 7.92171 19.3795 8.0067L20.7435 9.94365C20.5993 9.97819 20.4535 10.0087 20.3113 10.0479C19.9677 10.1404 19.6299 10.2476 19.2992 10.3694C16.774 11.2854 14.6937 12.9112 13.4051 14.9757C12.1164 17.0402 11.6973 19.4186 12.2177 21.7145C12.738 24.0104 14.1663 26.0849 16.2645 27.5923C18.3627 29.0996 21.0039 29.9486 23.7478 29.9977C26.4917 30.0469 29.1724 29.2932 31.3431 27.8623C33.5138 26.4315 35.0432 24.4099 35.6763 22.1347C36.3094 19.8595 36.0081 17.4681 34.8224 15.3593C33.6367 13.2505 31.6384 11.5516 29.1607 10.546H29.1603ZM21.2986 7.1523L21.6505 7.77796H20.5641L21.2986 7.1523ZM22.3071 6.88898H25.8559L25.4646 7.77796H22.807L22.3071 6.88898ZM27.436 7.77796H26.5792L26.8129 7.24697L27.436 7.77796ZM26.6551 9.81546C26.3544 9.75744 26.0513 9.70939 25.7458 9.67131L26.1879 8.66694H27.1944L26.6551 9.81546ZM25.0733 8.66694L24.6729 9.57677C24.3855 9.56326 24.0981 9.55841 23.8104 9.56224L23.3069 8.66694H25.0733ZM21.061 8.66694H22.1504L22.6873 9.62166C22.3929 9.64878 22.1006 9.68515 21.8102 9.73079L21.061 8.66694Z" fill="#ED8D1B"/>
<path d="M17.5767 14.5501C17.4713 14.4739 17.3346 14.4364 17.1967 14.446C17.0588 14.4555 16.9311 14.5114 16.8415 14.6012C15.2941 16.1552 14.5017 18.154 14.6262 20.1892C14.7507 22.2243 15.7827 24.1421 17.5113 25.5507C19.2399 26.9593 21.5346 27.7522 23.9265 27.7675C26.3184 27.7829 28.6268 27.0194 30.3801 25.6331C32.1334 24.2468 33.1991 22.3425 33.3595 20.3091C33.5199 18.2758 32.7628 16.2671 31.243 14.6934C29.7232 13.1197 27.5554 12.0999 25.1826 11.8424C22.8099 11.585 20.4112 12.1092 18.477 13.308C18.4204 13.342 18.3724 13.3853 18.3357 13.4352C18.299 13.4851 18.2743 13.5408 18.263 13.599C18.2518 13.6571 18.2542 13.7166 18.2702 13.7739C18.2862 13.8313 18.3154 13.8853 18.3561 13.933C18.3969 13.9806 18.4483 14.0209 18.5075 14.0514C18.5667 14.0819 18.6324 14.1021 18.7008 14.1108C18.7692 14.1195 18.839 14.1165 18.906 14.1021C18.9731 14.0876 19.0361 14.0619 19.0914 14.0264C20.8128 12.9596 22.9475 12.4931 25.0591 12.7223C27.1707 12.9516 29.0999 13.8592 30.4524 15.2597C31.8048 16.6603 32.4784 18.448 32.3356 20.2575C32.1927 22.0671 31.2441 23.7618 29.6837 24.9954C28.1233 26.229 26.0688 26.9083 23.9402 26.8945C21.8115 26.8808 19.7694 26.1749 18.2312 24.9212C16.693 23.6676 15.7747 21.9607 15.6642 20.1496C15.5536 18.3384 16.2591 16.5596 17.6363 15.1767C17.6808 15.1323 17.7145 15.0808 17.7355 15.0252C17.7565 14.9696 17.7645 14.9111 17.759 14.8529C17.7534 14.7947 17.7345 14.738 17.7032 14.6861C17.6719 14.6341 17.629 14.5879 17.5767 14.5501V14.5501Z" fill="#ED8D1B"/>
<defs>
<filter id="filter0_d_27_219" x="0" y="0" width="48" height="44" filterUnits="userSpaceOnUse" color-interpolation-filters="sRGB">
<feFlood flood-opacity="0" result="BackgroundImageFix"/>
<feColorMatrix in="SourceAlpha" type="matrix" values="0 0 0 0 0 0 0 0 0 0 0 0 0 0 0 0 0 0 127 0" result="hardAlpha"/>
<feOffset dy="4"/>
<feGaussianBlur stdDeviation="2"/>
<feComposite in2="hardAlpha" operator="out"/>
<feColorMatrix type="matrix" values="0 0 0 0 0 0 0 0 0 0 0 0 0 0 0 0 0 0 1 0"/>
<feBlend mode="normal" in2="BackgroundImageFix" result="effect1_dropShadow_27_219"/>
<feBlend mode="normal" in="SourceGraphic" in2="effect1_dropShadow_27_219" result="shape"/>
</filter>
</defs>
</svg>
